<svg width="100" height="61" viewBox="0 0 100 61" fill="none" xmlns="http://www.w3.org/2000/svg">
<g id="BSG Logo 1" clip-path="url(#clip0_511_22)">
<g id="Group">
<g id="Clip path group">
<mask id="mask0_511_22" style="mask-type:luminance" maskUnits="userSpaceOnUse" x="0" y="-22" width="101" height="103">
<g id="SVGID_2_">
<path id="Vector" d="M100.738 -21.0667H0.737915V80.0538H100.738V-21.0667Z" fill="white"/>
</g>
</mask>
<g mask="url(#mask0_511_22)">
<path id="Vector_2" d="M67.4108 32.3269C66.6682 32.9758 65.9241 33.584 65.0253 33.9492C64.1249 34.3144 63.1909 34.52 62.2182 34.542C61.2523 34.5624 60.3015 34.4928 59.3608 34.2346C58.4217 33.9764 57.57 33.5449 56.7133 32.9911C55.1879 34.5539 53.2661 35.0635 51.1579 35.0109C49.8862 34.9786 48.6633 34.7323 47.5042 34.0851C48.0787 33.5194 48.6565 33.0098 49.1639 32.434C49.6729 31.8564 50.1113 31.2143 50.5968 30.5807C51.1243 30.72 51.6703 30.7454 52.2229 30.6979C52.9083 30.6384 53.7684 29.9861 53.7617 29.1843C53.6408 28.7613 53.3787 28.3689 53.0058 28.0241C52.2952 27.3684 51.4502 26.9607 50.58 26.587C49.8224 26.2609 49.137 25.8192 48.4684 25.3351C48.0585 25.0395 47.6184 24.7881 47.2841 24.3991C46.7465 23.7739 46.2493 23.1233 45.8948 22.364C45.2951 21.0815 44.3443 20.1472 42.9953 19.7225C40.1496 18.8273 37.1662 20.2186 36.3817 23.4036C36.0222 24.8611 36.1381 26.3186 36.7529 27.7065C36.8604 27.9494 37.0284 28.1651 37.1746 28.3876C37.5794 29.0026 38.0515 29.5478 38.6948 29.925C40.6435 31.0682 43.1549 30.8966 44.8785 29.1554C45.1422 28.8904 45.322 28.5405 45.5471 28.2348C46.2358 27.2954 46.4005 26.2031 46.4475 25.0786C46.4542 24.9376 46.4609 24.7966 46.4693 24.6403C47.1984 25.1737 47.9056 25.685 48.6062 26.2048C49.3167 26.7331 50.1264 27.0932 50.869 27.5281C50.9781 27.9171 50.8068 28.2365 50.6875 28.5269C50.3415 29.361 50.0038 30.2052 49.4746 30.9493C48.3962 32.4679 47.0808 33.6944 45.3455 34.4078C44.0033 34.9599 42.614 35.106 41.1727 34.9429C39.5953 34.7629 38.2514 34.097 37.0435 33.0947C36.8789 32.9572 36.7076 32.8263 36.4488 32.6208C36.4304 33.3122 36.4153 33.888 36.4018 34.4486C35.9835 34.5743 32.1719 34.5794 31.7233 34.4588C31.7166 34.3161 31.7015 34.1598 31.7015 34.0053C31.7049 30.9901 31.7133 27.9765 31.7116 24.9613C31.7116 24.4534 31.6427 23.9438 31.641 23.4359C31.6393 22.8159 31.6948 22.1959 31.6965 21.5758C31.7015 17.3647 31.6998 13.1536 31.6998 8.94255C31.6998 8.72342 31.7099 8.50428 31.7149 8.30214C32.0929 8.19172 35.7668 8.16454 36.38 8.26307C36.3934 8.44993 36.4203 8.65037 36.4203 8.84912C36.4237 11.545 36.422 14.2408 36.4236 16.9367C36.4236 17.1065 36.4354 17.2747 36.4438 17.5176C36.595 17.4157 36.6891 17.3698 36.7647 17.3019C38.458 15.7527 40.4419 14.9916 42.7266 15.0919C44.2015 15.1564 45.5807 15.5658 46.8288 16.3846C46.9599 16.4695 47.0926 16.5511 47.2606 16.6564C49.0513 15.1445 51.1159 14.8014 53.3401 15.277C54.2119 15.4639 55.0535 15.7663 55.8196 16.3659C54.6621 17.3359 53.7651 18.4553 53.1032 19.7735C52.8546 19.6886 52.6496 19.6138 52.4413 19.5493C51.8802 19.3709 51.3225 19.3794 50.7749 19.6036C50.4053 19.7565 50.1248 20.0028 50.0542 20.419C49.9769 20.876 50.1533 21.2565 50.5313 21.4875C51.1781 21.8816 51.8466 22.2383 52.5169 22.5917C53.1721 22.9365 53.8507 23.2389 54.5009 23.5939C54.857 23.7875 55.1762 24.0508 55.5121 24.2819C55.7843 24.4687 56.0732 24.6352 56.3269 24.8441C57.0274 25.4183 57.4978 26.1538 57.8354 27.0015C58.326 28.2263 59.1676 29.1487 60.3536 29.7228C61.9814 30.5093 64.4978 30.4465 66.0685 28.9499C67.0664 27.9986 67.5871 26.8299 67.6913 25.4591C67.7165 25.1261 67.7518 24.7881 67.7249 24.4585C67.7014 24.146 67.5955 23.8402 67.5384 23.5293C67.2075 21.7202 66.1408 20.5073 64.4676 19.9043C62.272 19.1144 59.564 19.6597 58.1496 22.0549C57.8001 22.6477 57.6792 23.2949 57.5465 23.9472C57.4877 24.2377 57.444 24.5333 57.3819 24.8832C56.9451 24.6912 56.6847 24.3379 56.3689 24.0746C56.0262 23.7875 55.6801 23.531 55.282 23.3272C54.9057 23.1335 54.5529 22.8889 54.1901 22.6681C53.8306 22.449 53.4089 22.3385 53.078 22.0243C53.4173 20.4649 54.1178 19.1127 55.1661 17.9474C56.2043 16.794 57.4474 15.9395 58.929 15.4809C60.4208 15.0188 61.9327 14.956 63.4597 15.3161C64.9682 15.6711 66.213 16.5137 67.4208 17.5618C67.5871 16.8755 67.4091 16.2504 67.5519 15.5981C68.0491 15.5318 68.5497 15.5743 69.047 15.5675C69.5677 15.559 70.0885 15.5658 70.6092 15.5658H72.1564C72.1749 15.7764 72.1984 15.9293 72.1984 16.0822C72.2001 18.2362 72.1984 20.3884 72.2001 22.5424C72.2018 23.0044 72.2538 23.4682 72.2253 23.9268C72.1497 25.1516 72.2186 26.3764 72.1934 27.5994C72.1682 28.8072 72.2152 30.0167 72.1917 31.2245C72.1732 32.2114 72.1329 33.2018 72.0355 34.1836C71.9296 35.264 71.676 36.3155 71.2291 37.3143C70.5068 38.923 69.3191 40.0628 67.7837 40.8527C66.4868 41.5203 65.0908 41.8125 63.6461 41.9229C62.6668 41.9977 61.6891 41.9756 60.7164 41.8855C58.7174 41.7021 56.8527 41.1262 55.282 39.7995C54.1296 38.8262 53.3216 37.6082 52.8294 36.1762C52.8143 36.1337 52.8277 36.0828 52.8277 36.0114C52.873 35.991 52.9251 35.9435 52.9789 35.9435C54.6336 35.9401 56.2899 35.9401 57.911 35.9401C58.2554 36.2051 58.5578 36.4599 58.882 36.6807C59.6077 37.1733 60.4392 37.3789 61.2893 37.4689C62.4719 37.5929 63.6545 37.5522 64.7985 37.1682C65.5914 36.9015 66.2752 36.4684 66.7892 35.7787C67.1033 35.3557 67.268 34.8716 67.3419 34.3705C67.4309 33.7572 67.441 33.1338 67.4796 32.5138C67.488 32.4662 67.4527 32.4255 67.4108 32.3269Z" fill="#063231"/>
</g>
</g>
<g id="Clip path group_2">
<mask id="mask1_511_22" style="mask-type:luminance" maskUnits="userSpaceOnUse" x="0" y="-22" width="101" height="103">
<g id="SVGID_2__2">
<path id="Vector_3" d="M100.738 -21.0667H0.737915V80.0538H100.738V-21.0667Z" fill="white"/>
</g>
</mask>
<g mask="url(#mask1_511_22)">
<path id="Vector_4" d="M36.4185 36.0692H31.6376V39.2101H36.4185V36.0692Z" fill="#C7D9A7"/>
</g>
</g>
<g id="Clip path group_3">
<mask id="mask2_511_22" style="mask-type:luminance" maskUnits="userSpaceOnUse" x="0" y="-22" width="101" height="103">
<g id="SVGID_2__3">
<path id="Vector_5" d="M100.738 -21.0667H0.737915V80.0538H100.738V-21.0667Z" fill="white"/>
</g>
</mask>
<g mask="url(#mask2_511_22)">
<path id="Vector_6" d="M72.0052 3.84818H31.8728V5.05596H72.0052V3.84818Z" fill="#063231"/>
</g>
</g>
<g id="Clip path group_4">
<mask id="mask3_511_22" style="mask-type:luminance" maskUnits="userSpaceOnUse" x="0" y="-22" width="101" height="103">
<g id="SVGID_2__4">
<path id="Vector_7" d="M100.738 -21.0667H0.737915V80.0538H100.738V-21.0667Z" fill="white"/>
</g>
</mask>
<g mask="url(#mask3_511_22)">
<path id="Vector_8" d="M72.0052 44.8176H31.8728V46.027H72.0052V44.8176Z" fill="#063231"/>
</g>
</g>
</g>
</g>
<defs>
<clipPath id="clip0_511_22">
<rect width="100" height="60.8247" fill="white"/>
</clipPath>
</defs>
</svg>
